<svg width="57" height="29" viewBox="0 0 57 29" fill="none" xmlns="http://www.w3.org/2000/svg">
<g opacity="0.5" clip-path="url(#clip0_170_1229)">
<path d="M49.2883 8.13524V15.103H46.7899V10.2153H44.3842V15.103H41.8857V8.13477H49.2883V8.13524Z" fill="white"/>
<path fill-rule="evenodd" clip-rule="evenodd" d="M36.7544 15.3523C38.991 15.3523 40.6519 13.9867 40.6519 11.9164C40.6519 9.91259 39.4265 8.61156 37.3786 8.61156C36.4334 8.61156 35.6536 8.94287 35.0661 9.51454C35.2064 8.33297 36.2097 7.47037 37.3144 7.47037C37.5694 7.47037 39.4888 7.46634 39.4888 7.46634L40.5742 5.39795C40.5742 5.39795 38.1644 5.45257 37.0442 5.45257C34.4847 5.49699 32.7559 7.8138 32.7559 10.6277C32.7559 13.9059 34.442 15.3523 36.7544 15.3523ZM36.768 10.4436C37.5985 10.4436 38.1742 10.987 38.1742 11.9161C38.1742 12.7524 37.6626 13.4414 36.768 13.4433C35.9123 13.4433 35.3366 12.8049 35.3366 11.9304C35.3366 11.001 35.9123 10.4436 36.768 10.4436Z" fill="white"/>
<path d="M30.7223 12.7704C30.7223 12.7704 30.1322 13.1091 29.251 13.1732C28.2379 13.2032 27.3352 12.566 27.3352 11.4338C27.3352 10.3294 28.1317 9.69648 29.2255 9.69648C29.8961 9.69648 30.7833 10.1594 30.7833 10.1594C30.7833 10.1594 31.4325 8.97306 31.7688 8.37978C31.153 7.91499 30.3328 7.66016 29.3788 7.66016C26.9712 7.66016 25.1064 9.22338 25.1064 11.4198C25.1064 13.6442 26.8591 15.1711 29.3788 15.125C30.0831 15.0989 31.0547 14.8526 31.6469 14.4738L30.7223 12.7704Z" fill="white"/>
<path d="M0 6.20361L3.46579 12.3727V16.1356L0.00405439 22.2926L0 6.20361Z" fill="white"/>
<path d="M13.3076 10.128L16.5552 8.14582L23.2015 8.13965L13.3076 14.1755V10.128Z" fill="white"/>
<path d="M13.289 6.16716L13.3074 14.3348L9.8335 12.2092V0L13.289 6.16716Z" fill="white"/>
<path d="M23.2013 8.13936L16.5547 8.14554L13.289 6.16716L9.8335 0L23.2013 8.13936Z" fill="white"/>
<path d="M13.3074 22.3267V18.3641L9.8335 16.2788L9.8354 28.5001L13.3074 22.3267Z" fill="white"/>
<path d="M16.5467 20.3626L3.46555 12.3727L0 6.20361L23.1871 20.3546L16.5467 20.3626Z" fill="white"/>
<path d="M9.83545 28.5L13.307 22.3267L16.5464 20.3626L23.1868 20.3545L9.83545 28.5Z" fill="white"/>
<path d="M0.00390625 22.2923L9.86157 16.2788L6.54746 14.2539L3.46564 16.1354L0.00390625 22.2923Z" fill="white"/>
<path d="M27.3357 19.7924C27.2593 19.8893 27.1589 19.9625 27.0385 20.0119C26.9149 20.062 26.7827 20.0874 26.6493 20.0869C26.5166 20.0887 26.3846 20.0666 26.2598 20.0218C26.1477 19.9813 26.0452 19.918 25.9588 19.8361C25.8735 19.754 25.8066 19.655 25.7623 19.5454C25.7144 19.4254 25.6905 19.2972 25.692 19.168C25.692 19.0398 25.7141 18.921 25.7602 18.8084C25.8043 18.6956 25.8684 18.599 25.9488 18.5177C26.0292 18.4349 26.1255 18.3717 26.2338 18.3223C26.3442 18.2748 26.4647 18.2491 26.597 18.2491C26.7397 18.2491 26.872 18.2669 26.9925 18.3023C27.1129 18.338 27.2152 18.3973 27.2994 18.4805L27.153 18.7275C27.0821 18.6635 26.9987 18.615 26.908 18.585C26.8218 18.5573 26.7317 18.5433 26.6412 18.5436C26.561 18.5436 26.4847 18.5593 26.4105 18.589C26.3374 18.6183 26.2707 18.6613 26.2138 18.7156C26.1556 18.7714 26.1098 18.8387 26.0793 18.9132C26.0452 18.9901 26.0292 19.0752 26.0292 19.1699C26.0292 19.2668 26.0471 19.3537 26.0812 19.4288C26.1155 19.506 26.1616 19.5713 26.2197 19.6264C26.2779 19.682 26.3461 19.7233 26.4244 19.7511C26.5028 19.7808 26.5851 19.7945 26.6734 19.7945C26.7816 19.7945 26.8801 19.7727 26.9643 19.7311C27.0477 19.691 27.1227 19.6354 27.1852 19.5673L27.3357 19.7924ZM27.749 20.0453V18.2867H28.0662V19.5969L29.0976 18.2867H29.4148V20.0456H29.0976V18.7353L28.0662 20.0456L27.749 20.0453ZM31.516 19.7924C31.4379 19.8901 31.3356 19.9658 31.2191 20.0119C31.0954 20.0619 30.9631 20.0874 30.8296 20.0869C30.697 20.0887 30.5651 20.0666 30.4404 20.0218C30.3282 19.9813 30.2256 19.918 30.1391 19.8361C30.0539 19.754 29.9869 19.655 29.9426 19.5454C29.8947 19.4254 29.8708 19.2972 29.8723 19.168C29.8723 19.0398 29.8945 18.921 29.9405 18.8084C29.9848 18.6956 30.049 18.599 30.1291 18.5177C30.2095 18.4349 30.3059 18.3717 30.4141 18.3223C30.5285 18.2721 30.6524 18.2472 30.7774 18.2491C30.92 18.2491 31.0523 18.2669 31.1728 18.3023C31.2932 18.338 31.3955 18.3973 31.48 18.4805L31.3333 18.7275C31.2626 18.6635 31.1792 18.615 31.0886 18.585C31.0024 18.5573 30.9123 18.5434 30.8217 18.5436C30.6623 18.5441 30.5092 18.6057 30.3941 18.7156C30.3365 18.7718 30.2907 18.839 30.2596 18.9132C30.2255 18.9901 30.2095 19.0752 30.2095 19.1699C30.2095 19.2668 30.2276 19.3537 30.2617 19.4288C30.2958 19.506 30.3419 19.5713 30.4001 19.6264C30.4583 19.682 30.5267 19.7233 30.6049 19.7511C30.6832 19.7786 30.7654 19.7945 30.8537 19.7945C30.9622 19.7945 31.0585 19.7727 31.1446 19.7311C31.2281 19.691 31.303 19.6354 31.3655 19.5673L31.516 19.7924ZM31.6786 18.2867H33.3061V18.599H32.6519V20.0453H32.3347V18.599H31.6805V18.2867H31.6786Z" fill="white"/>
<path fill-rule="evenodd" clip-rule="evenodd" d="M34.7872 20.0276C34.9077 19.9901 35.01 19.9326 35.0982 19.8538L35.0019 19.6087C34.9437 19.6602 34.8655 19.7037 34.7713 19.7393C34.6768 19.7749 34.5704 19.7925 34.4541 19.7925C34.2795 19.7925 34.135 19.7471 34.0205 19.6543C33.9062 19.5612 33.844 19.431 33.8299 19.2648H35.2027C35.2168 19.2035 35.2227 19.1344 35.2227 19.0534C35.2227 18.9327 35.2006 18.8242 35.1564 18.7254C35.1154 18.6295 35.0553 18.5427 34.9799 18.4703C34.9035 18.3986 34.8134 18.3429 34.715 18.3065C34.612 18.2666 34.5023 18.2465 34.3918 18.2471C34.2432 18.2471 34.1128 18.2727 33.9985 18.3202C33.8905 18.3655 33.7929 18.4321 33.7114 18.5159C33.6323 18.5994 33.5716 18.6983 33.533 18.8064C33.4906 18.9215 33.4695 19.0434 33.4708 19.166C33.4708 19.3044 33.4948 19.4308 33.539 19.5436C33.5819 19.6529 33.6476 19.7519 33.7317 19.8341C33.8139 19.9148 33.9141 19.9763 34.0326 20.0198C34.1596 20.0646 34.2934 20.0866 34.4281 20.0849C34.55 20.0841 34.6711 20.0647 34.7872 20.0276ZM33.9845 18.6739C34.0827 18.585 34.2132 18.5416 34.3777 18.5416C34.5323 18.5416 34.6568 18.5831 34.7472 18.6663C34.8376 18.7492 34.8855 18.8639 34.8936 19.0099H33.8099C33.8253 18.8806 33.8873 18.761 33.9845 18.6739Z" fill="white"/>
<path d="M35.6548 18.2866H35.9438L36.6302 19.1582L37.2804 18.2866H37.5613V20.0455H37.2443V18.763L36.6262 19.5791H36.614L35.972 18.7628V20.0453H35.6548V18.2866Z" fill="white"/>
<path fill-rule="evenodd" clip-rule="evenodd" d="M38.4236 18.2927C38.3274 18.3177 38.2354 18.3569 38.1508 18.409L38.235 18.6584C38.3073 18.6228 38.3795 18.5931 38.4518 18.5675C38.5241 18.5416 38.6164 18.5297 38.7268 18.5297C38.815 18.5297 38.8854 18.5437 38.9395 18.5713C38.9936 18.5969 39.0337 18.6366 39.0619 18.6841C39.09 18.7316 39.1081 18.7907 39.1181 18.8598C39.1282 18.9289 39.1322 19.004 39.1322 19.0852C39.0673 19.0402 38.9933 19.0098 38.9154 18.9961C38.8401 18.9812 38.7635 18.9733 38.6867 18.9724C38.5923 18.9724 38.504 18.9864 38.4196 19.0099C38.3354 19.0337 38.2631 19.0693 38.2049 19.1168C38.1455 19.1642 38.0975 19.2243 38.0645 19.2925C38.0291 19.3673 38.0113 19.4491 38.0122 19.5317C38.0122 19.7037 38.0626 19.8381 38.1627 19.9331C38.2631 20.0278 38.3955 20.0751 38.5601 20.0751C38.7086 20.0751 38.8272 20.0495 38.9173 19.9982C39.0077 19.9466 39.08 19.8875 39.1322 19.8203V20.0476H39.4291V18.9686C39.4291 18.7392 39.3791 18.5615 39.2767 18.4368C39.1763 18.3124 38.9977 18.2492 38.7449 18.2492C38.6323 18.2492 38.526 18.2649 38.4236 18.2927ZM38.9538 19.7177C38.8816 19.769 38.7871 19.7925 38.6707 19.7925C38.5684 19.7925 38.488 19.7668 38.432 19.7174C38.3757 19.6661 38.3476 19.5989 38.3476 19.5158C38.3476 19.4666 38.3576 19.4251 38.3798 19.3875C38.4019 19.35 38.432 19.3203 38.4661 19.2966C38.5034 19.2717 38.5448 19.2537 38.5884 19.2431C38.6347 19.2313 38.6807 19.2253 38.7289 19.2253C38.8856 19.2253 39.0199 19.2629 39.1303 19.3419V19.5652C39.0783 19.6233 39.019 19.6747 38.9538 19.7177ZM42.2291 17.668C42.2932 17.6386 42.3533 17.5892 42.4096 17.516L42.2369 17.269C42.1928 17.3284 42.1427 17.3697 42.0864 17.3916C42.0268 17.4148 41.9649 17.432 41.9018 17.4429L41.8417 17.4536C41.7895 17.4626 41.7335 17.4726 41.6731 17.4826C41.5764 17.5004 41.482 17.5296 41.3922 17.5695C41.2496 17.6308 41.1353 17.7136 41.049 17.8184C40.9627 17.9231 40.8944 18.0416 40.8482 18.1723C40.8013 18.3046 40.7697 18.4418 40.754 18.5812C40.7378 18.7237 40.7299 18.8598 40.7299 18.9902C40.7299 19.1584 40.7518 19.3104 40.7959 19.4467C40.8403 19.5832 40.9023 19.6977 40.9846 19.7906C41.0669 19.8856 41.1654 19.9568 41.2818 20.0081C41.3981 20.0594 41.5286 20.0851 41.675 20.0851C41.8095 20.0851 41.934 20.0594 42.0464 20.0119C42.1547 19.9663 42.2529 19.8999 42.3354 19.8165C42.4156 19.7352 42.4799 19.6383 42.5241 19.5298C42.5701 19.421 42.5923 19.3044 42.5923 19.1819C42.5923 19.0496 42.5722 18.9292 42.5341 18.8223C42.4989 18.7204 42.4429 18.6269 42.3695 18.5477C42.296 18.4699 42.2062 18.4091 42.1065 18.3696C41.9966 18.3265 41.8794 18.3051 41.7614 18.3064C41.685 18.3064 41.6109 18.3164 41.5386 18.3361C41.4683 18.3559 41.4008 18.3844 41.3378 18.4212C41.2766 18.456 41.2206 18.4992 41.1713 18.5494C41.1232 18.599 41.0831 18.6544 41.0549 18.7176H41.0468C41.053 18.6366 41.0631 18.5537 41.0809 18.4687C41.0991 18.3836 41.1251 18.3024 41.1594 18.2255C41.1935 18.1485 41.2376 18.0792 41.2918 18.016C41.3498 17.9522 41.421 17.9017 41.5005 17.8678C41.5878 17.8263 41.6803 17.7965 41.7754 17.779L41.8384 17.7676C41.9011 17.7562 41.961 17.7452 42.0182 17.7334C42.0945 17.7177 42.1647 17.6975 42.2291 17.668ZM41.1131 19.3579C41.0821 19.2581 41.0672 19.154 41.069 19.0496C41.0825 18.9896 41.107 18.9327 41.1413 18.8817C41.1754 18.8282 41.2195 18.781 41.2717 18.7392C41.3896 18.6472 41.5353 18.5978 41.685 18.599C41.8718 18.599 42.0123 18.6563 42.1105 18.7691C42.209 18.8836 42.2572 19.0258 42.2572 19.1978C42.2572 19.2828 42.241 19.36 42.2131 19.431C42.186 19.5011 42.145 19.565 42.0926 19.6189C42.0402 19.6729 41.9774 19.7159 41.908 19.7452C41.8358 19.7768 41.7573 19.7927 41.6691 19.7927C41.5808 19.7927 41.5005 19.7749 41.4263 19.7393C41.3526 19.7044 41.2874 19.6538 41.2355 19.5911C41.1811 19.5212 41.1397 19.4422 41.1131 19.3579ZM45.0247 18.2867H44.7075V20.0457H45.0247V18.2867ZM43.0497 18.2867H43.3669V18.8145H43.66C43.7983 18.8145 43.9107 18.8323 44.0011 18.8658C44.0914 18.8995 44.1637 18.9448 44.2179 19.0002C44.272 19.0555 44.3101 19.1208 44.3323 19.1937C44.3543 19.2669 44.3664 19.3419 44.3664 19.421C44.3664 19.5001 44.3543 19.5754 44.3283 19.6505C44.3042 19.7255 44.262 19.7906 44.2057 19.85C44.1496 19.9093 44.0733 19.9568 43.977 19.9925C43.8806 20.0278 43.7642 20.0476 43.6238 20.0476H43.0478V18.2867H43.0497ZM43.3669 19.1087V19.7531H43.5978C43.7564 19.7531 43.8687 19.7255 43.9329 19.6699C43.9972 19.6146 44.0292 19.5357 44.0292 19.431C44.0292 19.3241 43.9951 19.2434 43.9309 19.1878C43.8646 19.1325 43.7542 19.1047 43.6018 19.1047H43.3669V19.1087Z" fill="white"/>
<path d="M47.1223 19.7924C47.046 19.8893 46.9456 19.9625 46.8251 20.0119C46.7015 20.0619 46.5693 20.0874 46.4359 20.0869C46.3032 20.0887 46.1713 20.0667 46.0464 20.0218C45.9343 19.9813 45.8318 19.9181 45.7455 19.8361C45.6602 19.754 45.5931 19.6549 45.5487 19.5454C45.501 19.4253 45.4771 19.2972 45.4786 19.168C45.4786 19.0398 45.5005 18.921 45.5468 18.8084C45.5909 18.6956 45.6551 18.599 45.7354 18.5177C45.8158 18.4349 45.9119 18.3717 46.0204 18.3223C46.1348 18.2721 46.2587 18.2472 46.3837 18.2491C46.526 18.2491 46.6586 18.2669 46.7791 18.3023C46.8995 18.338 47.0018 18.3973 47.086 18.4805L46.9396 18.7275C46.8688 18.6635 46.7854 18.615 46.6947 18.585C46.6084 18.5573 46.5184 18.5433 46.4278 18.5436C46.3476 18.5436 46.2713 18.5593 46.1969 18.589C46.1239 18.6183 46.0572 18.6613 46.0004 18.7156C45.9427 18.7718 45.8969 18.839 45.8659 18.9132C45.8318 18.9901 45.8158 19.0752 45.8158 19.1699C45.8158 19.2668 45.8337 19.3537 45.8678 19.4288C45.9019 19.506 45.9482 19.5713 46.0064 19.6264C46.0646 19.682 46.1328 19.7233 46.211 19.7511C46.2895 19.7786 46.3717 19.7945 46.46 19.7945C46.5683 19.7945 46.6646 19.7727 46.7509 19.7311C46.8344 19.691 46.9093 19.6354 46.9718 19.5673L47.1223 19.7924ZM47.2847 18.2867H48.9124V18.599H48.258V20.0453H47.941V18.599H47.2868V18.2867H47.2847Z" fill="white"/>
<path fill-rule="evenodd" clip-rule="evenodd" d="M49.575 18.2869H49.2578V20.8281H49.575V19.9646C49.6392 20.0061 49.7155 20.0358 49.8037 20.0555C49.892 20.0752 49.9843 20.085 50.0787 20.085C50.2192 20.085 50.3456 20.0593 50.4601 20.0121C50.5699 19.9653 50.6694 19.8975 50.7529 19.8126C50.8352 19.7273 50.8975 19.6285 50.9416 19.5119C50.9857 19.3955 51.0079 19.2708 51.0079 19.1385C51.0079 19.0079 50.9878 18.8875 50.9497 18.7787C50.9138 18.6754 50.8579 18.5801 50.7851 18.4982C50.7138 18.4184 50.6252 18.3555 50.5261 18.3144C50.4178 18.2681 50.3008 18.2451 50.1829 18.2472C50.0587 18.2472 49.9423 18.2709 49.8319 18.3184C49.7214 18.3659 49.6351 18.4229 49.575 18.4942V18.2869ZM49.7959 18.6129C49.8862 18.5654 49.9845 18.5417 50.0909 18.5417C50.1832 18.5417 50.2654 18.5555 50.3399 18.5852C50.4121 18.6148 50.4722 18.6564 50.5225 18.7117C50.5726 18.7671 50.6108 18.8305 50.6349 18.9053C50.6609 18.9804 50.673 19.0616 50.673 19.1504C50.673 19.2454 50.6568 19.3302 50.6289 19.4093C50.6026 19.4843 50.5609 19.553 50.5063 19.6109C50.4516 19.6682 50.3852 19.7133 50.3117 19.7432C50.2298 19.7774 50.1416 19.7942 50.0527 19.7926C49.9666 19.7926 49.8862 19.7829 49.8099 19.7632C49.7264 19.7405 49.6471 19.7044 49.5752 19.6563V18.7847C49.6313 18.7177 49.7057 18.6604 49.7959 18.6129ZM53.4403 18.2866H53.1231V20.0455H53.4403V18.2866ZM51.4634 18.2866H51.7806V18.8143H52.0735C52.212 18.8143 52.3244 18.8322 52.4148 18.8656C52.5051 18.8994 52.5774 18.9447 52.6315 19.0001C52.6857 19.0554 52.7238 19.1207 52.7458 19.1936C52.768 19.2668 52.7799 19.3418 52.7799 19.4209C52.7799 19.5 52.768 19.5753 52.742 19.6503C52.7179 19.7254 52.6757 19.7905 52.6194 19.8498C52.5633 19.9092 52.487 19.9567 52.3907 19.9923C52.2943 20.0277 52.1779 20.0474 52.0375 20.0474H51.4615V18.2866H51.4634ZM51.7827 19.1086V19.7529H52.0136C52.172 19.7529 52.2845 19.7254 52.3487 19.6698C52.4128 19.6145 52.445 19.5356 52.445 19.4309C52.445 19.324 52.4109 19.2433 52.3468 19.1877C52.2805 19.1324 52.1701 19.1046 52.0177 19.1046H51.7827V19.1086Z" fill="white"/>
<path d="M54.9612 19.1345L55.6394 20.0455H55.2502L54.7262 19.334L54.1944 20.0455H53.8252L54.4994 19.1502L53.8653 18.2866H54.2547L54.7384 18.9507L55.2299 18.2866H55.5994L54.9612 19.1345ZM27.101 22.2194H26.1277V23.6857H25.8105V21.927H27.418V23.6857H27.101V22.2194ZM29.2181 22.2391H28.5921L28.5718 22.5355C28.5499 22.7865 28.5198 22.9882 28.4776 23.1421C28.4354 23.2964 28.3832 23.415 28.3231 23.4978C28.263 23.581 28.1926 23.6382 28.1123 23.666C28.0293 23.6959 27.9417 23.7107 27.8535 23.7095L27.8294 23.405C27.8635 23.4069 27.9036 23.399 27.9477 23.3793C27.9921 23.3596 28.0362 23.3162 28.0781 23.2511C28.1204 23.1836 28.1585 23.0889 28.1926 22.9663C28.2267 22.8419 28.2489 22.6799 28.2608 22.4761L28.293 21.9287H29.5353V23.6876H29.2181V22.2391Z" fill="white"/>
<path fill-rule="evenodd" clip-rule="evenodd" d="M30.3904 21.9312C30.2879 21.9587 30.1956 21.9981 30.1174 22.0475L30.2018 22.2967C30.2741 22.261 30.3463 22.2314 30.4184 22.2057C30.4906 22.1801 30.5832 22.1682 30.6933 22.1682C30.7818 22.1682 30.8519 22.182 30.9061 22.2095C30.9605 22.2354 31.0005 22.2748 31.0287 22.3223C31.0566 22.3698 31.0747 22.4292 31.0847 22.4981C31.0947 22.5674 31.0988 22.6425 31.0988 22.7235C31.0339 22.6785 30.9599 22.6482 30.882 22.6346C30.8066 22.6197 30.7301 22.6118 30.6533 22.6109C30.5591 22.6109 30.4706 22.6247 30.3864 22.6484C30.302 22.6722 30.2297 22.7078 30.1715 22.7553C30.1121 22.8027 30.0641 22.8627 30.031 22.931C29.9958 23.0058 29.978 23.0876 29.979 23.1702C29.979 23.3419 30.0291 23.4766 30.1295 23.5713C30.2297 23.6661 30.3623 23.7136 30.5269 23.7136C30.6754 23.7136 30.7937 23.6879 30.8841 23.6364C30.9743 23.5851 31.0465 23.5257 31.0988 23.4585V23.6858H31.3959V22.6068C31.3959 22.3777 31.3456 22.1998 31.2433 22.0753C31.1429 21.9506 30.9643 21.8877 30.7115 21.8877C30.603 21.8878 30.495 21.9026 30.3904 21.9312ZM30.9223 23.3557C30.8503 23.4072 30.7558 23.431 30.6394 23.431C30.535 23.431 30.4568 23.4053 30.4007 23.3557C30.3444 23.3044 30.3163 23.2372 30.3163 23.1543C30.3163 23.1049 30.3263 23.0633 30.3485 23.0258C30.3704 22.9883 30.4007 22.9586 30.4348 22.9348C30.4689 22.9111 30.5109 22.8933 30.5572 22.8814C30.603 22.8696 30.6502 22.8637 30.6976 22.8638C30.8541 22.8638 30.9886 22.9013 31.099 22.9802V23.2034C31.0469 23.2615 30.9875 23.3127 30.9223 23.3557Z" fill="white"/>
<path d="M31.7065 21.9272H33.3343V22.2393H32.6798V23.6859H32.3629V22.2396H31.7087V21.9272H31.7065Z" fill="white"/>
<path fill-rule="evenodd" clip-rule="evenodd" d="M34.8158 23.6679C34.9362 23.6304 35.0385 23.5729 35.1268 23.494L35.0304 23.2489C34.9722 23.3005 34.894 23.3439 34.7996 23.3796C34.7054 23.4152 34.599 23.4328 34.4826 23.4328C34.308 23.4328 34.1635 23.3874 34.049 23.2945C33.9346 23.2017 33.8725 23.0713 33.8585 22.905H35.2312C35.2451 22.844 35.2513 22.7746 35.2513 22.6937C35.2513 22.5732 35.2291 22.4645 35.185 22.3657C35.1439 22.2698 35.0838 22.1831 35.0083 22.1108C34.932 22.039 34.8419 21.9832 34.7435 21.9467C34.6405 21.9069 34.5309 21.8868 34.4204 21.8873C34.2718 21.8873 34.1413 21.913 34.0271 21.9605C33.919 22.0056 33.8213 22.0722 33.7399 22.1562C33.6609 22.2397 33.6 22.3386 33.5613 22.4467C33.519 22.5618 33.4979 22.6836 33.4991 22.8062C33.4991 22.9447 33.5232 23.071 33.5673 23.1839C33.6116 23.2964 33.6777 23.3933 33.76 23.4743C33.8423 23.5553 33.9427 23.6166 34.0612 23.66C34.188 23.7049 34.3218 23.7271 34.4564 23.7254C34.5749 23.7254 34.6953 23.7054 34.8158 23.6679ZM34.0111 22.3122C34.1094 22.2234 34.2398 22.1799 34.4044 22.1799C34.5611 22.1799 34.6834 22.2234 34.7738 22.3044C34.864 22.3875 34.9121 22.502 34.9203 22.6483H33.8365C33.8518 22.5189 33.9139 22.3994 34.0111 22.3122ZM35.4058 21.927H35.8072L36.4192 22.7749L35.765 23.6857H35.3758L36.0619 22.7746L35.4058 21.927ZM36.4974 21.927H36.8146V23.6857H36.4974V21.927ZM37.9484 23.6857L37.2501 22.7746L37.9024 21.9268H37.5089L36.8928 22.7746L37.5551 23.6857H37.9484ZM39.3975 23.6679C39.5179 23.6304 39.6202 23.5729 39.7085 23.494L39.6121 23.2489C39.5539 23.3005 39.4757 23.3439 39.3815 23.3796C39.2871 23.4152 39.1807 23.4328 39.0643 23.4328C38.8897 23.4328 38.7452 23.3874 38.6307 23.2945C38.5165 23.2017 38.4543 23.0713 38.4402 22.905H39.8129C39.827 22.844 39.833 22.7746 39.833 22.6937C39.833 22.5732 39.811 22.4645 39.7667 22.3657C39.7256 22.2698 39.6656 22.1831 39.5902 22.1108C39.5138 22.039 39.4237 21.9832 39.3252 21.9467C39.2222 21.9069 39.1126 21.8868 39.0021 21.8873C38.8537 21.8873 38.7233 21.913 38.6088 21.9605C38.5008 22.0057 38.4032 22.0723 38.3219 22.1562C38.2427 22.2396 38.1818 22.3385 38.1433 22.4467C38.1009 22.5618 38.0798 22.6836 38.081 22.8062C38.081 22.9447 38.1051 23.071 38.1492 23.1839C38.1933 23.2964 38.2596 23.3933 38.3419 23.4743C38.4242 23.5553 38.5244 23.6166 38.6429 23.66C38.7698 23.7049 38.9037 23.7271 39.0383 23.7254C39.1603 23.7245 39.2814 23.7051 39.3975 23.6679ZM38.5928 22.3122C38.6913 22.2234 38.8218 22.1799 38.9863 22.1799C39.1409 22.1799 39.2651 22.2234 39.3555 22.3044C39.4459 22.3875 39.4941 22.502 39.502 22.6483H38.4182C38.4335 22.5189 38.4956 22.3994 38.5928 22.3122ZM41.1197 21.3361C40.9329 21.3361 40.8306 21.2333 40.8146 21.0278H40.5156C40.5156 21.1067 40.5296 21.1779 40.5556 21.2451C40.5819 21.3124 40.62 21.3696 40.6701 21.4171C40.7202 21.4646 40.7846 21.5021 40.8587 21.5316C40.9329 21.5613 41.0193 21.575 41.1175 21.575C41.2079 21.575 41.2883 21.5613 41.3605 21.5316C41.4328 21.504 41.4929 21.4646 41.5451 21.4171C41.5952 21.3696 41.6355 21.3124 41.6634 21.2451C41.6916 21.1779 41.7056 21.1067 41.7056 21.0278H41.4087C41.3946 21.2333 41.2961 21.3361 41.1197 21.3361ZM40.2625 21.9268V23.6857H40.5797L41.6112 22.3754V23.6857H41.9284V21.9268H41.6112L40.5797 23.2371V21.9268H40.2625Z" fill="white"/>
</g>
<defs>
<clipPath id="clip0_170_1229">
<rect width="57" height="28.5" fill="white"/>
</clipPath>
</defs>
</svg>
