<svg width="59" height="18" viewBox="0 0 59 18" fill="none" xmlns="http://www.w3.org/2000/svg">
<g opacity="0.5">
<path d="M52.4857 0.8125H41.2231C41.8792 4.51403 45.4876 7.99782 49.4241 7.99782H58.3904C58.4997 7.67122 58.4997 7.12687 58.4997 6.80026C58.4997 3.53421 55.7661 0.8125 52.4857 0.8125Z" fill="white"/>
<path d="M42.207 8.65088V17.6869H47.6743V12.8967H52.4855C55.1098 12.8967 57.4061 11.046 58.1715 8.65088H42.207Z" fill="white"/>
<path d="M22.9629 0.8125V17.5782H27.7741C27.7741 17.5782 28.9769 17.5782 29.633 16.3807C32.9133 9.95745 33.8974 7.99782 33.8974 7.99782H34.5535V17.5782H40.0208V0.8125H35.2096C35.2096 0.8125 34.0068 0.921375 33.3507 2.01006C30.6171 7.56235 29.0862 10.3929 29.0862 10.3929H28.4302V0.8125H22.9629Z" fill="white"/>
<path d="M0 17.6876V0.921875H5.46727C5.46727 0.921875 6.99812 0.921872 7.87288 3.31698C10.0598 9.63134 10.2785 10.5023 10.2785 10.5023C10.2785 10.5023 10.7159 8.97813 12.6841 3.31698C13.5588 0.921872 15.0897 0.921875 15.0897 0.921875H20.557V17.6876H15.0897V8.65154H14.4336L11.372 17.6876H8.96634L5.90468 8.65154H5.2486V17.6876H0Z" fill="white"/>
</g>
</svg>
