<svg width="52" height="17" viewBox="0 0 52 17" fill="none" xmlns="http://www.w3.org/2000/svg">
<g opacity="0.5">
<path d="M48.0699 0.599609H44.8637C43.8944 0.599609 43.1488 0.899609 42.7014 1.87461L36.5874 15.8996H40.912C40.912 15.8996 41.6576 14.0246 41.8067 13.5746C42.2541 13.5746 46.5041 13.5746 47.1006 13.5746C47.2497 14.0996 47.6225 15.8246 47.6225 15.8246H51.4997L48.0699 0.599609ZM42.9997 10.4246C43.3725 9.52461 44.64 6.14961 44.64 6.14961C44.64 6.22461 45.0128 5.24961 45.162 4.72461L45.4602 6.07461C45.4602 6.07461 46.2804 9.74961 46.4295 10.4996H42.9997V10.4246Z" fill="white"/>
<path d="M36.886 10.875C36.886 14.025 34.0527 16.125 29.6536 16.125C27.7895 16.125 26.0001 15.75 25.0308 15.3L25.6273 11.85L26.1492 12.075C27.4913 12.675 28.386 12.9 30.0264 12.9C31.2194 12.9 32.4869 12.45 32.4869 11.4C32.4869 10.725 31.965 10.275 30.3246 9.525C28.7588 8.775 26.6711 7.575 26.6711 5.4C26.6711 2.4 29.579 0.375 33.6799 0.375C35.2457 0.375 36.5878 0.675 37.408 1.05L36.8115 4.35L36.5132 4.05C35.7676 3.75 34.7983 3.45 33.3816 3.45C31.8158 3.525 31.0702 4.2 31.0702 4.8C31.0702 5.475 31.965 6 33.3816 6.675C35.7676 7.8 36.886 9.075 36.886 10.875Z" fill="white"/>
<path d="M0.5 0.750195L0.574561 0.450195H6.98684C7.88158 0.450195 8.55263 0.750195 8.77632 1.7252L10.193 8.47519C8.77632 4.8752 5.49561 1.9502 0.5 0.750195Z" fill="white"/>
<path d="M19.2146 0.600391L12.7278 15.8254H8.32866L4.60059 3.07539C7.2848 4.80039 9.52164 7.50039 10.3418 9.37539L10.7892 10.9504L14.8155 0.525391H19.2146V0.600391Z" fill="white"/>
<path d="M20.93 0.525391H25.0308L22.4212 15.8254H18.3203L20.93 0.525391Z" fill="white"/>
</g>
</svg>
