<svg width="21" height="21" viewBox="0 0 21 21" fill="none" xmlns="http://www.w3.org/2000/svg">
<rect x="0.714286" y="0.714286" width="19.1429" height="19.1429" rx="4.42857" stroke="white" stroke-width="1.42857"/>
<path d="M10.5582 13.9062C6.28748 13.9062 3.8515 10.9736 3.75 6.09375H5.88929C5.95956 9.67546 7.5367 11.1926 8.78592 11.5054V6.09375H10.8003V9.18278C12.0339 9.04983 13.33 7.64217 13.7672 6.09375H15.7815C15.6168 6.89681 15.2884 7.65717 14.8168 8.32729C14.3453 8.9974 13.7408 9.56285 13.0411 9.98827C13.8221 10.377 14.5119 10.9272 15.0651 11.6025C15.6182 12.2779 16.0221 13.0631 16.25 13.9062H14.0326C13.828 13.1739 13.4122 12.5183 12.8372 12.0217C12.2622 11.525 11.5536 11.2094 10.8003 11.1144V13.9062H10.5582Z" fill="white"/>
</svg>
