<svg width="20" height="20" viewBox="0 0 20 20" fill="none" xmlns="http://www.w3.org/2000/svg">
<g clip-path="url(#clip0_184_107)">
<path fill-rule="evenodd" clip-rule="evenodd" d="M16.6564 2.72484C14.9022 0.968642 12.5693 0.00102539 10.084 0C4.96277 0 0.794824 4.16783 0.792773 9.29042C0.79207 10.928 1.21983 12.5265 2.03294 13.9355L0.714844 18.75L5.64026 17.4579C6.99741 18.1983 8.52533 18.5884 10.0802 18.5889H10.0841C15.2048 18.5889 19.3732 14.4207 19.3751 9.29786C19.3762 6.81518 18.4106 4.48096 16.6564 2.72484ZM10.084 17.0197H10.0808C8.69513 17.0191 7.33614 16.6468 6.15029 15.9433L5.86846 15.7759L2.94562 16.5426L3.72574 13.6929L3.54205 13.4008C2.76902 12.1712 2.3608 10.7501 2.3615 9.29097C2.36311 5.0332 5.82747 1.5692 10.0871 1.5692C12.1498 1.56987 14.0887 2.37416 15.5467 3.83385C17.0047 5.29353 17.8071 7.23378 17.8065 9.29727C17.8046 13.5554 14.3405 17.0197 10.084 17.0197ZM14.3199 11.236C14.0878 11.1197 12.9464 10.5583 12.7335 10.4807C12.5209 10.4032 12.3659 10.3646 12.2113 10.597C12.0565 10.8293 11.6116 11.3523 11.4761 11.5071C11.3406 11.6621 11.2054 11.6815 10.9732 11.5653C10.741 11.4491 9.99298 11.2039 9.1062 10.413C8.41611 9.79737 7.95023 9.03714 7.81473 8.80485C7.67947 8.57229 7.81356 8.45877 7.91657 8.33103C8.16788 8.01896 8.41954 7.69177 8.49691 7.53694C8.57437 7.38196 8.53558 7.24637 8.47746 7.13021C8.41954 7.01405 7.95527 5.87136 7.76185 5.40638C7.57327 4.95389 7.38202 5.01498 7.23943 5.00792C7.10417 5.00115 6.94933 4.99977 6.7945 4.99977C6.63975 4.99977 6.38821 5.05778 6.17537 5.29034C5.96262 5.52278 5.36297 6.08434 5.36297 7.22704C5.36297 8.36973 6.19482 9.47361 6.31087 9.62856C6.42688 9.78354 7.94795 12.1284 10.2767 13.1339C10.8306 13.3733 11.2629 13.516 11.6002 13.623C12.1564 13.7997 12.6623 13.7748 13.0624 13.715C13.5085 13.6483 14.4358 13.1534 14.6294 12.6111C14.8229 12.0688 14.8229 11.604 14.7647 11.5071C14.7068 11.4103 14.552 11.3523 14.3199 11.236Z" fill="white"/>
</g>
<defs>
<clipPath id="clip0_184_107">
<rect width="20" height="20" fill="white"/>
</clipPath>
</defs>
</svg>
